<svg id="Layer_1" data-name="Layer 1" xmlns="http://www.w3.org/2000/svg" width="256" height="87.6" viewBox="0 0 256 87.6"><title>logo</title><path d="M16.3,15.7l8.8,23c2.1,5.5,3.9,11.1,5.3,15.1q2.3-6,5.7-14.4l9.3-22.9h.2l9.3,22.9q3.5,8.4,5.7,14.4c1.4-4,3.2-9.6,5.3-15.1l8.8-23h7.9l-22,55.8h-.2L48.6,41.7c-1-2.6-2.3-5.6-3.1-8.2-.9,2.6-2.1,5.6-3.1,8.2L30.6,71.5h-.2L8.4,15.7Z" fill="#231f20"/><path d="M92,46.3V70.6H86.2V46.3Z" fill="#231f20"/><path d="M123.2,65.2a21.9,21.9,0,0,0,11.6-3.4v6.7a24.5,24.5,0,0,1-12,3c-11.7,0-19.9-8.4-19.9-20s8.2-19.9,19.9-19.9a21.9,21.9,0,0,1,11.7,3v6.7a20.5,20.5,0,0,0-11.3-3.4c-7.6,0-13,5.6-13,13.6S115.5,65.2,123.2,65.2Z" fill="#231f20"/><path d="M160.7,48.2l14.9,22.4h-8.2l-12-18.4-6.6,7.1V70.6h-7V15.7h7.1V51.6l17.2-19.1h8.4Z" fill="#231f20"/><path d="M89.5,22.4l7.6,20.7c1.2,4.5-.4,9.7-4.2,11.7a7,7,0,0,1-3.8,1.1h0a7.7,7.7,0,0,1-3.9-1.1c-3.8-2-5.4-7.2-4.2-11.7l7.7-20.7C88.8,22,89.3,22,89.5,22.4Z" fill="#a33a3a"/><path d="M211.4,17.1a4.2,4.2,0,0,1,4.4,4.4,4.1,4.1,0,0,1-4.4,4.2,4,4,0,0,1-4.4-4.2A4.1,4.1,0,0,1,211.4,17.1ZM215,32.5V70.6h-7.1V32.5Z" fill="#231f20"/><path d="M227.9,32.5V21.1h6.9V32.5h11.5v5.8H234.8V58c0,5.4,2.4,7.3,5.6,7.3a17.7,17.7,0,0,0,7.2-1.7v6.2a19.4,19.4,0,0,1-8.5,1.7c-5.5,0-11.3-2.8-11.3-11.3V38.3h-6.3V32.5Z" fill="#231f20"/></svg>